# AST/ASF file generated using VICON BodyLanguage
# -----------------------------------------------
:version 1.10
:name VICON
:units
  mass 1.0
  length 0.45
  angle deg
:documentation
   .ast/.asf automatically generated from VICON data using
   VICON BodyBuilder and BodyLanguage model FoxedUp or BRILLIANT.MOD
:root
   order TX TY TZ RX RY RZ
   axis XYZ
   position 0 0 0  
   orientation 0 0 0 
:bonedata
  begin
     id 1 
     name lhipjoint
     direction 0.567149 -0.783011 0.255413 
     length 2.28399 
     axis 0 0 0  XYZ
  end
  begin
     id 2 
     name lfemur
     direction 0.34202 -0.939693 0  
     length 7.34031  
     axis 0 0 20  XYZ
    dof rx ry rz
    limits (-160.0 20.0)
           (-70.0 70.0)
           (-60.0 70.0)
  end
  begin
     id 3 
     name ltibia
     direction 0.34202 -0.939693 0   
     length 6.9833   
     axis 0 0 20   XYZ
    dof rx
    limits (-10.0 170.0)
  end
  begin
     id 4 
     name lfoot
     direction 0.136498 -0.375025 0.91691   
     length 2.33665   
     axis -90 7.62852e-016 20   XYZ
    dof rx rz
    limits (-45.0 90.0)
           (-70.0 20.0)
  end
  begin
     id 5 
     name ltoes
     direction 1.5367e-011 -4.21617e-011 1   
     length 1.15039   
     axis -90 7.62852e-016 20   XYZ
    dof rx
    limits (-90.0 20.0)
  end
  begin
     id 6 
     name rhipjoint
     direction -0.602854 -0.758518 0.247423   
     length 2.35775  
     axis 0 0 0  XYZ 
  end
  begin
     id 7 
     name rfemur
     direction -0.34202 -0.939693 0   
     length 7.43932   
     axis 0 0 -20   XYZ
    dof rx ry rz
    limits (-160.0 20.0)
           (-70.0 70.0)
           (-70.0 60.0)
  end
  begin
     id 8 
     name rtibia
     direction -0.34202 -0.939693 0   
     length 7.11893   
     axis 0 0 -20   XYZ
    dof rx
    limits (-10.0 170.0)
 end
 begin
     id 9 
     name rfoot
     direction -0.131771 -0.362037 0.922803   
     length 2.53019  
     axis -90 -7.62852e-016 -20   XYZ
    dof rx rz
    limits (-45.0 90.0)
           (-20.0 70.0)
  end
  begin
     id 10 
     name rtoes
     direction -1.53733e-011 -4.21932e-011 1   
     length 1.24596   
     axis -90 -7.62852e-016 -20   XYZ
    dof rx
    limits (-90.0 20.0)
  end
  begin
     id 11 
     name lowerback
     direction 0.0235427 0.999023 -0.0374125   
     length 2.21768   
     axis 0 0 0   XYZ
    dof rx ry rz
    limits (-20.0 45.0)
           (-30.0 30.0)
           (-30.0 30.0)
  end
  begin
     id 12 
     name upperback
     direction 0.0302156 0.996818 -0.073759   
     length 2.20352   
     axis 0 0 0   XYZ
    dof rx ry rz
    limits (-20.0 45.0)
           (-30.0 30.0)
           (-30.0 30.0)
  end
  begin
     id 13 
     name thorax
     direction 0.0187169 0.998235 -0.0563532   
     length 2.22103   
     axis 0 0 0   XYZ
    dof rx ry rz
    limits (-20.0 45.0)
           (-30.0 30.0)
           (-30.0 30.0)
  end
  begin
     id 14 
     name lowerneck
     direction -0.119528 0.987423 0.103481   
     length 1.72948   
     axis 0 0 0   XYZ
    dof rx ry rz
    limits (-20.0 45.0)
           (-30.0 30.0)
           (-30.0 30.0)
  end
  begin
     id 15 
     name upperneck
     direction 0.248049 0.963095 -0.104496   
     length 1.74979   
     axis 0 0 0   XYZ
    dof rx ry rz
    limits (-20.0 45.0)
           (-30.0 30.0)
           (-30.0 30.0)
  end
  begin
     id 16
     name head
     direction 0.0903589 0.994284 -0.056876  
     length 1.78268  
     axis 0 0 0   XYZ
    dof rx ry rz
    limits (-20.0 45.0)
           (-30.0 30.0)
           (-30.0 30.0)
  end
  begin
     id 17 
     name lclavicle
     direction 0.946008 0.242039 -0.215608  
     length 3.80783  
     axis 0 0 0   XYZ
    dof ry rz
    limits (-20.0 10.0)
           (0.0 20.0)
  end
  begin
     id 18 
     name lhumerus
     direction 1 -4.48991e-011 -2.25695e-027   
     length 4.83125   
     axis 180 -30 -90   XYZ
    dof rx ry rz
    limits (-60.0 90.0)
           (-90.0 90.0)
           (-90.0 90.0)
  end
  begin
     id 19
     name lradius
     direction 0.999991 0.00366712 -0.00211721   
     length 3.00391   
     axis 180 -30 -90   XYZ
    dof rx
    limits (-10.0 170.0)
  end
  begin
     id 20
     name lwrist
     direction 0.999991 0.00393016 -0.00141978   
     length 1.50195   
     axis -1.00488e-014 90 90   XYZ
    dof ry
    limits (-180.0 0.0)
 end
  begin
     id 21 
     name lhand
     direction 1 -4.49123e-011 2.72098e-026   
     length 1.2717   
     axis -1.73687e-014 90 90   XYZ
    dof rx rz
    limits (-90.0 90.0)
           (-45.0 45.0)
  end
  begin
     id 22 
     name lfingers
     direction 1 -4.48678e-011 5.4479e-026   
     length 1.02528   
     axis -3.47372e-014 90 90   XYZ
    dof rx
    limits (0.0 90.0)
  end
  begin
     id 23
     name lthumb
     direction 0.707107 -6.34851e-011 0.707107   
     length 1.4721   
     axis -90 45 -1.62303e-014   XYZ
    dof rx rz
    limits (-45.0 45.0)
           (-45.0 45.0)
  end
  begin
     id 24 
     name rclavicle
     direction -0.981723 0.189447 -0.0181673   
     length 3.74989  
     axis 0 0 0   XYZ 
    dof ry rz
    limits (-10.0 20.0)
           (-20.0 0.0)
  end
  begin
     id 25 
     name rhumerus
     direction -1 -4.48985e-011 2.38206e-027  
     length 4.61118   
     axis 180 30 90   XYZ
    dof rx ry rz
    limits (-90.0 60.0)
           (-90.0 90.0)
           (-90.0 90.0)
  end
  begin
     id 26 
     name rradius
     direction -1 -4.48977e-011 7.41019e-027   
     length 2.91491   
     axis 180 30 90   XYZ
    dof rx
    limits (-10.0 170.0)
  end
  begin
     id 27 
     name rwrist
     direction -1 -4.48549e-011 1.3624e-026   
     length 1.45745   
     axis -1.00488e-014 -90 -90   XYZ
    dof ry
    limits (-180.0 0.0)
  end
  begin
     id 28
     name rhand
     direction -1 -4.49107e-011 2.72109e-026   
     length 1.30769   
     axis -1.73687e-014 -90 -90   XYZ
    dof rx rz
    limits (-90.0 90.0)
           (-45.0 45.0)
  end
  begin
     id 29
     name rfingers
     direction -1 -4.48919e-011 5.44468e-026   
     length 1.05429   
     axis -3.47372e-014 -90 -90   XYZ
    dof rx
    limits (0.0 90.0)
  end
  begin
     id 30
     name rthumb
     direction -0.707107 -6.35315e-011 0.707107   
     length 1.51376   
     axis -90 -45 1.62303e-014   XYZ
    dof rx rz
    limits (-45.0 45.0)
           (-45.0 45.0)
  end
:hierarchy
  begin
    root lhipjoint rhipjoint lowerback
    lhipjoint lfemur
    lfemur ltibia
    ltibia lfoot
    lfoot ltoes
    rhipjoint rfemur
    rfemur rtibia
    rtibia rfoot
    rfoot rtoes
    lowerback upperback
    upperback thorax
    thorax lowerneck lclavicle rclavicle
    lowerneck upperneck
    upperneck head
    lclavicle lhumerus
    lhumerus lradius
    lradius lwrist
    lwrist lhand lthumb
    lhand lfingers
    rclavicle rhumerus
    rhumerus rradius
    rradius rwrist
    rwrist rhand rthumb
    rhand rfingers
  end

#!OML:ASF X:\für Bonn\!DataBase\2005_08_11_Bastian_Final\c3d\Bastian.ASF
:FULLY-SPECIFIED
:DEGREES
1
root -1.55997 17.288 1.64968 175.591 -5.14875 -175.244
lowerback 13.573 -0.838137 -0.557584
upperback 4.49463 -1.68261 0.466777
thorax -2.84902 -1.05862 1.07643
lowerneck -9.70119 -5.01139 -4.86556
upperneck -5.16224 -7.04486 14.1976
head 0.782006 -3.7364 4.79127
rclavicle 6.95746e-015 -7.95139e-016
rhumerus 72.155 20.1175 10.2772
rradius 38.0781
rwrist -62.4731
rhand -47.7598 -7.86891
rfingers 7.12502
rthumb -20.4376 -36.8133
lclavicle 6.95746e-015 -7.95139e-016
lhumerus 76.3601 -20.3422 -36.0293
lradius 31.4785
lwrist 26.1923
lhand -43.2248 21.7752
lfingers 7.12502
lthumb -16.0749 51.1284
rfemur -10.3415 1.78495 26.6677
rtibia 41.1287
rfoot -21.6094 -9.9183
rtoes -4.18812
lfemur -7.54314 3.42541 -15.163
ltibia 36.0281
lfoot -17.9562 -6.88413
ltoes -13.5258
2
root -1.55487 17.2773 1.6441 175.434 -5.05785 -175.428
lowerback 13.6391 -0.791101 -0.762822
upperback 4.56994 -1.6621 0.418849
thorax -2.80256 -1.05478 1.13953
lowerneck -9.57847 -5.03259 -4.94623
upperneck -5.19194 -7.06342 14.28
head 0.762442 -3.74867 4.83202
rclavicle 1.48095e-014 -2.3059e-014
rhumerus 72.1962 19.9876 10.3069
rradius 38.1444
rwrist -62.667
rhand -47.7668 -7.88888
rfingers 7.12502
rthumb -20.4443 -36.8326
lclavicle 1.48095e-014 -2.3059e-014
lhumerus 76.1795 -20.4771 -35.4761
lradius 31.5729
lwrist 26.3681
lhand -43.3439 21.8326
lfingers 7.12502
lthumb -16.1895 51.1765
rfemur -10.3255 1.4778 26.4443
rtibia 41.4552
rfoot -21.6783 -9.59816
rtoes -4.68681
lfemur -7.33154 3.71666 -15.2847
ltibia 36.0766
lfoot -17.9705 -7.11112
ltoes -13.0228
3
root -1.54816 17.2668 1.64082 175.266 -4.97915 -175.588
lowerback 13.7276 -0.735234 -0.945204
upperback 4.65369 -1.6293 0.371404
thorax -2.76033 -1.04586 1.18881
lowerneck -9.45848 -5.05643 -4.99657
upperneck -5.2425 -7.08837 14.3498
head 0.73609 -3.76619 4.864
rclavicle 4.87022e-015 3.97569e-015
rhumerus 72.1912 19.9039 10.339
rradius 38.2166
rwrist -62.9077
rhand -47.7961 -7.84906
rfingers 7.12502
rthumb -20.4725 -36.7897
lclavicle 4.87022e-015 3.97569e-015
lhumerus 75.9957 -20.6024 -34.7415
lradius 31.6114
lwrist 26.3957
lhand -43.4513 21.7944
lfingers 7.12502
lthumb -16.293 51.1299
rfemur -10.3355 1.19173 26.2551
rtibia 41.8225
rfoot -21.7411 -9.31517
rtoes -5.19561
lfemur -7.14055 3.96072 -15.3807
ltibia 36.1451
lfoot -17.9987 -7.30914
ltoes -12.6964
4
root -1.54153 17.2555 1.64045 175.087 -4.90488 -175.769
lowerback 13.8703 -0.682841 -1.14646
upperback 4.72811 -1.60513 0.325474
thorax -2.75634 -1.04138 1.25331
lowerneck -9.34846 -5.07931 -5.03619
upperneck -5.26651 -7.11176 14.3841
head 0.716821 -3.78049 4.88279
rclavicle -1.13307e-014 -1.03368e-014
rhumerus 72.2686 19.8668 10.6001
rradius 38.3582
rwrist -63.3035
rhand -47.8653 -7.91906
rfingers 7.12502
rthumb -20.539 -36.8526
lclavicle -1.13307e-014 -1.03368e-014
lhumerus 75.8092 -20.7654 -33.9364
lradius 31.6046
lwrist 26.327
lhand -43.4822 21.6926
lfingers 7.12502
lthumb -16.3227 51.0256
rfemur -10.3671 0.886846 26.0317
rtibia 42.2383
rfoot -21.8025 -8.98554
rtoes -5.59878
lfemur -6.95634 4.17277 -15.5066
ltibia 36.2326
lfoot -18.0274 -7.45236
ltoes -12.5517
